<svg width="640" height="420" viewBox="0 0 640 420" fill="none" xmlns="http://www.w3.org/2000/svg">
    <defs>
        <linearGradient id="bgGrad" x1="94" y1="22" x2="562" y2="390" gradientUnits="userSpaceOnUse">
            <stop offset="0" stop-color="#EEF2FF"/>
            <stop offset="1" stop-color="#E2E8F0"/>
        </linearGradient>
        <linearGradient id="badgeGrad" x1="248" y1="300" x2="392" y2="360" gradientUnits="userSpaceOnUse">
            <stop offset="0" stop-color="#435EBE"/>
            <stop offset="1" stop-color="#25396F"/>
        </linearGradient>
        <filter id="softShadow" x="126" y="53" width="388" height="306" filterUnits="userSpaceOnUse" color-interpolation-filters="sRGB">
            <feFlood flood-opacity="0" result="BackgroundImageFix"/>
            <feColorMatrix in="SourceAlpha" type="matrix" values="0 0 0 0 0 0 0 0 0 0 0 0 0 0 0 0 0 0 127 0" result="hardAlpha"/>
            <feOffset dy="12"/>
            <feGaussianBlur stdDeviation="14"/>
            <feComposite in2="hardAlpha" operator="out"/>
            <feColorMatrix type="matrix" values="0 0 0 0 0.145098 0 0 0 0 0.223529 0 0 0 0 0.435294 0 0 0 0.22 0"/>
            <feBlend mode="normal" in2="BackgroundImageFix" result="effect1_dropShadow_419"/>
            <feBlend mode="normal" in="SourceGraphic" in2="effect1_dropShadow_419" result="shape"/>
        </filter>
    </defs>

    <rect width="640" height="420" rx="24" fill="url(#bgGrad)"/>
    <circle cx="120" cy="80" r="38" fill="#FFFFFF" fill-opacity="0.4"/>
    <circle cx="534" cy="92" r="22" fill="#FFFFFF" fill-opacity="0.45"/>
    <circle cx="565" cy="314" r="28" fill="#FFFFFF" fill-opacity="0.33"/>

    <g filter="url(#softShadow)">
        <rect x="154" y="69" width="332" height="250" rx="26" fill="#FFFFFF"/>

        <rect x="186" y="102" width="268" height="24" rx="8" fill="#EEF2FF"/>
        <circle cx="203" cy="114" r="4" fill="#7C8DB5"/>
        <rect x="216" y="110" width="82" height="8" rx="4" fill="#7C8DB5" fill-opacity="0.42"/>

        <circle cx="320" cy="188" r="73" fill="#EEF2FF"/>
        <circle cx="320" cy="188" r="56" fill="#FFFFFF" stroke="#435EBE" stroke-width="8"/>
        <path d="M320 156V189L342 204" stroke="#435EBE" stroke-width="8" stroke-linecap="round" stroke-linejoin="round"/>
        <circle cx="320" cy="188" r="4.5" fill="#435EBE"/>

        <rect x="248" y="270" width="144" height="62" rx="14" fill="url(#badgeGrad)"/>
        <text x="320" y="308" text-anchor="middle" fill="white" font-family="Segoe UI, Arial, sans-serif" font-size="34" font-weight="800" letter-spacing="1">419</text>

        <rect x="199" y="284" width="34" height="26" rx="9" fill="#FFE7D1"/>
        <path d="M216 289V297" stroke="#F07E2E" stroke-width="3" stroke-linecap="round"/>
        <circle cx="216" cy="303" r="1.9" fill="#F07E2E"/>

        <rect x="407" y="284" width="34" height="26" rx="9" fill="#DDF4F2"/>
        <path d="M415 297H433" stroke="#0E9F8A" stroke-width="3" stroke-linecap="round"/>
    </g>

    <ellipse cx="320" cy="354" rx="154" ry="14" fill="#25396F" fill-opacity="0.12"/>
    <text x="320" y="385" text-anchor="middle" fill="#7C8DB5" font-family="Segoe UI, Arial, sans-serif" font-size="22" font-weight="600">Session Expired</text>
</svg>
